<svg xmlns="http://www.w3.org/2000/svg" fill="none" viewBox="0 0 18 16" width="16" height="16"><path fill="white" d="M14.24 0c.828 0 1.56.454 1.808 1.123l1.78 4.81c.113.307.172.63.172.955V14.4c0 .425-.2.832-.555 1.131-.355.3-.837.469-1.34.469H1.895c-.503 0-.985-.168-1.34-.469C.2 15.232 0 14.824 0 14.4V6.888c0-.325.059-.648.173-.955l1.78-4.81C2.202.455 2.934 0 3.762 0h10.478zm-.918 2.133H4.678c-.284 0-.54.15-.651.379l-.031.079-.982 3.16a.5.5 0 00.477.649h11.017a.5.5 0 00.478-.648l-.983-3.161c-.083-.27-.363-.457-.681-.458z"/></svg>