<svg width="32" height="20" viewBox="0 0 32 20" fill="none" xmlns="http://www.w3.org/2000/svg">
<rect width="32" height="20" rx="2" fill="#F1F1F1"/>
<path d="M19.4554 9.99869C19.4547 11.4182 18.3246 12.5628 16.9082 12.5781C15.5018 12.5943 14.3249 11.4136 14.3257 9.98794C14.3265 8.55926 15.4811 7.41463 16.9182 7.42C18.3261 7.42538 19.4562 8.57385 19.4554 9.99869Z" fill="#FE6C01"/>
<path d="M1 12.3701C1 10.7556 1 9.17879 1 7.49677C1.75695 7.55972 2.51773 7.53669 3.23399 7.70328C4.34945 7.96276 4.97897 8.92391 4.93521 10.0778C4.89375 11.1587 4.12606 12.0638 3.04207 12.2903C2.80639 12.3394 2.56149 12.3601 2.31967 12.367C1.88899 12.3785 1.45755 12.3701 1 12.3701ZM1.94196 11.5341C2.70735 11.5771 3.36604 11.478 3.7591 10.7656C4.07232 10.1983 4.01474 9.45132 3.62475 8.96306C3.18333 8.41109 2.59297 8.33739 1.94196 8.41186C1.94196 9.46283 1.94196 10.48 1.94196 11.5341Z" fill="black"/>
<path d="M29.503 10.3572C30.0012 11.0243 30.4726 11.6562 31 12.3624C30.6107 12.3624 30.2968 12.3839 29.9889 12.3509C29.8784 12.3386 29.7571 12.2112 29.6834 12.1068C29.2972 11.5564 28.9257 10.9959 28.4566 10.4632C28.4566 11.0742 28.4566 11.6861 28.4566 12.3302C28.1203 12.3302 27.8363 12.3302 27.5177 12.3302C27.5177 10.7572 27.5177 9.18111 27.5177 7.49371C28.2278 7.55513 28.9533 7.56127 29.6557 7.69408C30.276 7.81154 30.5578 8.26141 30.5793 8.89245C30.6023 9.58031 30.3382 10.0148 29.7502 10.2582C29.6788 10.2881 29.6074 10.3158 29.503 10.3572ZM28.4397 9.76609C28.8811 9.77991 29.3233 9.81292 29.5145 9.38224C29.6074 9.17343 29.5935 8.82566 29.4761 8.63374C29.2519 8.26601 28.8358 8.30363 28.4397 8.33434C28.4397 8.82106 28.4397 9.2763 28.4397 9.76609Z" fill="black"/>
<path d="M25.1578 8.38732C25.1578 8.75121 25.1578 9.07671 25.1578 9.44904C25.7075 9.44904 26.2372 9.44904 26.7861 9.44904C26.7861 9.73232 26.7861 9.96724 26.7861 10.2344C26.2457 10.2344 25.7259 10.2344 25.1709 10.2344C25.1709 10.6766 25.1709 11.0881 25.1709 11.5372C25.716 11.5372 26.2603 11.5372 26.8337 11.5372C26.8337 11.822 26.8337 12.07 26.8337 12.344C25.9701 12.344 25.1195 12.344 24.2358 12.344C24.2358 10.7702 24.2358 9.19186 24.2358 7.58124C25.0788 7.58124 25.9409 7.58124 26.833 7.58124C26.833 7.82997 26.833 8.08868 26.833 8.38655C26.2649 8.38732 25.7206 8.38732 25.1578 8.38732Z" fill="black"/>
<path d="M6.70239 11.607C6.89739 11.3851 7.06474 11.1947 7.25129 10.9813C7.51769 11.3744 7.82553 11.6223 8.2754 11.6177C8.61088 11.6139 8.88879 11.4818 8.9955 11.1548C9.10067 10.8339 8.89416 10.612 8.64159 10.4623C8.40207 10.3203 8.14029 10.2136 7.88388 10.1015C7.10543 9.76297 6.81064 9.29237 6.94959 8.59607C7.0801 7.94276 7.69656 7.47984 8.45658 7.48752C8.9694 7.49289 9.42618 7.66332 9.83613 8.02875C9.668 8.24217 9.51446 8.43793 9.3924 8.593C9.10912 8.47631 8.8742 8.33122 8.62163 8.28823C8.31455 8.23602 8.0282 8.35041 7.92226 8.68436C7.81325 9.02675 8.06736 9.16954 8.31609 9.28546C8.58171 9.40906 8.86269 9.50042 9.12677 9.62632C9.82845 9.96104 10.0933 10.4501 9.97508 11.1625C9.85532 11.8849 9.33866 12.3877 8.6224 12.4714C7.81018 12.5658 7.18374 12.2511 6.70239 11.607Z" fill="black"/>
<path d="M19.1913 7.57736C19.242 7.56507 19.2665 7.55509 19.2911 7.55433C20.1586 7.51901 20.1578 7.51901 20.4779 8.32432C20.7466 9.00066 21.0153 9.677 21.2856 10.3526C21.3316 10.467 21.3854 10.579 21.466 10.7602C21.8398 9.82977 22.2145 8.9807 22.5185 8.10707C22.6751 7.65796 22.8969 7.45683 23.3683 7.54818C23.4781 7.56968 23.5963 7.55126 23.7445 7.55126C23.7153 7.6595 23.703 7.74318 23.6716 7.81918C23.0543 9.29085 22.4394 10.7641 21.8068 12.2288C21.7569 12.344 21.5834 12.4584 21.456 12.4722C21.3485 12.4837 21.1612 12.3755 21.1182 12.2741C20.4726 10.7587 19.8454 9.23635 19.2143 7.71477C19.2013 7.68023 19.202 7.64031 19.1913 7.57736Z" fill="black"/>
<path d="M14.001 8.77579C12.8817 8.15396 12.1976 8.19234 11.6395 8.88173C11.1259 9.51585 11.1436 10.5054 11.6787 11.108C12.2529 11.7544 12.9577 11.7782 13.9994 11.1533C13.9994 11.4811 14.0148 11.7806 13.9894 12.0761C13.9825 12.156 13.8666 12.2558 13.7783 12.2949C12.7772 12.7325 11.4883 12.387 10.8096 11.508C10.1233 10.6183 10.1241 9.33774 10.8104 8.44415C11.4983 7.54901 12.7657 7.19818 13.7676 7.64498C13.8727 7.6918 13.9741 7.85072 13.9902 7.96971C14.0248 8.21998 14.001 8.47792 14.001 8.77579Z" fill="black"/>
<path d="M6.28484 12.3502C5.99388 12.3502 5.71828 12.3502 5.40967 12.3502C5.40967 10.7664 5.40967 9.19032 5.40967 7.58276C5.6822 7.58276 5.96855 7.58276 6.28484 7.58276C6.28484 9.14809 6.28484 10.7249 6.28484 12.3502Z" fill="black"/>
</svg>
