<svg width="32" height="20" viewBox="0 0 32 20" fill="none" xmlns="http://www.w3.org/2000/svg">
<rect width="32" height="20" rx="2" fill="#F1F1F1"/>
<path d="M12.2748 5.17298L8.21406 14.8586H5.565L3.56732 7.12927C3.44533 6.65436 3.34947 6.47572 2.97259 6.27748C2.18522 5.9043 1.35472 5.6299 0.5 5.46055L0.558819 5.17952H4.82432C5.10284 5.17928 5.37227 5.2786 5.584 5.45957C5.79572 5.64053 5.93579 5.89121 5.97892 6.16638L7.03549 11.7716L9.64968 5.17952L12.2748 5.17298ZM22.6509 11.7085C22.6706 9.14003 19.1174 8.99842 19.1414 7.85689C19.1414 7.51051 19.4812 7.14017 20.2045 7.04649C21.0522 6.96496 21.9062 7.11557 22.6749 7.48219L23.1106 5.42569C22.3612 5.14286 21.5675 4.99533 20.7665 4.98999C18.2896 4.98999 16.5468 6.29709 16.5337 8.19238C16.5163 9.58662 17.7777 10.3709 18.7253 10.8284C19.6729 11.2858 20.0324 11.6061 20.0324 12.0309C20.0324 12.6844 19.2525 12.9676 18.5336 12.9785C17.6377 12.9983 16.7518 12.7875 15.9608 12.3664L15.5033 14.4969C16.3916 14.8415 17.3368 15.0159 18.2896 15.0111C20.9212 15.0111 22.6466 13.704 22.6466 11.6976L22.6509 11.7085ZM29.1821 14.8586H31.5L29.4762 5.17298H27.3391C27.1104 5.17028 26.8861 5.2366 26.6957 5.3633C26.5053 5.48999 26.3575 5.67117 26.2716 5.88317L22.5115 14.8586H25.154L25.6747 13.4121H28.8902L29.1821 14.8586ZM26.3958 11.4274L27.716 7.78936L28.4741 11.4274H26.3958ZM15.854 5.17298L13.7823 14.8586H11.277L13.3488 5.17298H15.854Z" fill="#1A1F71"/>
</svg>
