<svg width="22" height="14" viewBox="0 0 22 14" fill="none" xmlns="http://www.w3.org/2000/svg">
<rect width="22" height="14" rx="2" fill="#026FCF"/>
<path d="M2.32478 3.71328C2.35447 3.6442 2.39191 3.61534 2.47171 3.61627C2.81795 3.62074 3.16438 3.62 3.51061 3.61665C3.5819 3.6159 3.61707 3.6416 3.64412 3.70453C3.7502 3.95234 3.86101 4.19811 3.98525 4.44313C3.98525 4.22232 3.98449 4.0015 3.98544 3.78068C3.98619 3.6092 3.96388 3.61832 4.14579 3.61832C4.56767 3.61814 4.98954 3.62112 5.41142 3.61609C5.50067 3.61497 5.54038 3.64569 5.56648 3.72538C5.6215 3.89295 5.68466 4.05773 5.75293 4.24671C5.78999 4.14635 5.821 4.06555 5.84993 3.984C5.88529 3.88476 5.91423 3.78291 5.95658 3.68684C5.97001 3.6563 6.01596 3.6362 6.05113 3.62C6.07193 3.6105 6.10068 3.61814 6.12582 3.61814C8.30441 3.61814 10.4832 3.61814 12.6618 3.61814C12.8201 3.61814 12.8201 3.61814 12.8201 3.77584C12.8201 3.81903 12.8201 3.86223 12.8201 3.92386C12.8584 3.90077 12.8864 3.8855 12.9129 3.86781C13.1595 3.70267 13.4358 3.6226 13.7298 3.62056C14.4446 3.61534 15.1594 3.6213 15.874 3.61963C15.9511 3.61944 15.9853 3.65258 16.0128 3.71663C16.1158 3.9583 16.2227 4.19848 16.3408 4.4368C16.3408 4.20277 16.3441 3.96873 16.3391 3.73469C16.3373 3.64793 16.3616 3.61497 16.4553 3.61627C16.8172 3.62093 17.1793 3.61981 17.5414 3.61665C17.6101 3.61609 17.6511 3.64029 17.6867 3.69559C17.7706 3.82592 17.8599 3.95309 17.9644 4.07858C17.9644 3.95644 17.9684 3.83411 17.9629 3.71216C17.9595 3.63657 17.9898 3.61627 18.062 3.61683C18.4177 3.61925 18.7736 3.61795 19.1293 3.61795C19.2758 3.61795 19.2762 3.61814 19.2762 3.75983C19.2764 4.61536 19.2762 5.47108 19.2762 6.32661C19.2762 6.37614 19.2753 6.42585 19.2758 6.47537C19.2764 6.52676 19.2592 6.55376 19.1991 6.55339C18.8088 6.55134 18.4183 6.55395 18.028 6.54966C17.9936 6.54929 17.9486 6.51708 17.9272 6.48673C17.8394 6.36255 17.7591 6.23333 17.6573 6.10858C17.6573 6.22402 17.6532 6.33946 17.6589 6.45471C17.6626 6.53253 17.6341 6.5545 17.5564 6.55413C16.9896 6.55134 16.4229 6.55115 15.8562 6.55432C15.783 6.55469 15.7495 6.52937 15.7267 6.46476C15.6913 6.36571 15.645 6.27038 15.6079 6.1717C15.5901 6.1246 15.5654 6.10207 15.5118 6.10356C15.3954 6.10672 15.2785 6.09965 15.1626 6.10765C15.1291 6.10989 15.0839 6.14191 15.069 6.17226C15.0198 6.27224 14.9801 6.37688 14.9408 6.48133C14.9221 6.53104 14.8963 6.55413 14.8383 6.55376C14.3943 6.55134 13.9503 6.55897 13.5067 6.54929C13.292 6.54464 13.0992 6.45415 12.9225 6.3348C12.8942 6.31563 12.8666 6.29496 12.8202 6.262C12.8202 6.34076 12.8183 6.40593 12.8208 6.47109C12.8231 6.529 12.8028 6.55376 12.7397 6.55357C12.1416 6.5519 11.5433 6.55357 10.9452 6.55004C10.9087 6.54985 10.8635 6.52136 10.8377 6.49269C10.7402 6.38414 10.6488 6.27001 10.5331 6.16165C10.5331 6.25493 10.5295 6.34858 10.5342 6.44167C10.5384 6.52229 10.5163 6.55469 10.4244 6.5545C8.11664 6.5519 5.8089 6.55208 3.50116 6.55395C3.43025 6.55395 3.39262 6.53402 3.36917 6.46774C3.33419 6.3685 3.28842 6.27299 3.25098 6.1745C3.23188 6.12404 3.20314 6.10151 3.14622 6.10337C3.03295 6.1071 2.91912 6.09946 2.80642 6.10747C2.77276 6.10989 2.72681 6.14154 2.71206 6.17189C2.66157 6.27466 2.62488 6.38396 2.57742 6.48841C2.56551 6.51447 2.5326 6.54911 2.50915 6.54929C2.22948 6.55097 1.34432 6.56772 1.06445 6.5653L2.32478 3.71328ZM5.75728 5.41578C5.73515 5.36327 5.71964 5.33051 5.70716 5.29662C5.5608 4.89501 5.41406 4.49341 5.2694 4.09124C5.24823 4.03222 5.22118 4.00112 5.14895 4.00261C4.9192 4.00764 4.68925 4.00578 4.4595 4.00317C4.39842 4.00243 4.37687 4.02235 4.37687 4.08342C4.37838 4.74979 4.37857 5.41634 4.37668 6.0827C4.37649 6.15048 4.40296 6.16779 4.46612 6.16574C4.57939 6.16202 4.69304 6.1596 4.80593 6.1663C4.89064 6.17133 4.91239 6.14154 4.91163 6.06073C4.90804 5.60197 4.90974 5.1432 4.91012 4.68443C4.91012 4.65278 4.91333 4.62113 4.91504 4.58966C4.95172 4.62299 4.96723 4.65837 4.98065 4.69467C5.15027 5.15717 5.32084 5.61928 5.48724 6.08289C5.51013 6.14675 5.5417 6.17021 5.60978 6.16612C5.70395 6.16053 5.79888 6.1596 5.89286 6.1663C5.96377 6.17133 5.99138 6.14154 6.0135 6.0801C6.1801 5.61668 6.34991 5.15419 6.51915 4.6917C6.53219 4.65595 6.54827 4.62132 6.56283 4.58613C6.57134 4.5878 6.58004 4.58948 6.58855 4.59115C6.58855 4.62355 6.58855 4.65576 6.58855 4.68816C6.58855 5.15009 6.58968 5.61184 6.58741 6.07377C6.58703 6.1408 6.60462 6.1691 6.67742 6.16593C6.79693 6.1609 6.91682 6.16146 7.03614 6.16574C7.10383 6.16816 7.12199 6.14228 7.1218 6.07879C7.1201 5.41541 7.1201 4.75202 7.1218 4.08882C7.12199 4.02458 7.10213 4.00168 7.03538 4.00261C6.8183 4.00578 6.60084 4.00857 6.38375 4.0015C6.29563 3.99852 6.25611 4.027 6.2285 4.10781C6.09065 4.50905 5.94751 4.90842 5.80568 5.30835C5.79509 5.33888 5.7794 5.36756 5.75728 5.41578ZM18.3385 5.35024C18.3298 5.35248 18.3211 5.3549 18.3124 5.35713C18.2912 5.32771 18.2687 5.29904 18.2488 5.26888C17.9877 4.87099 17.7279 4.47218 17.4641 4.07597C17.4422 4.04302 17.3941 4.00857 17.3569 4.00727C17.1746 4.00019 16.9919 4.00541 16.8094 4.00317C16.7525 4.00243 16.7321 4.02235 16.7321 4.07895C16.7334 4.74811 16.7336 5.41746 16.7319 6.08661C16.7317 6.14917 16.7561 6.16723 16.8159 6.16556C16.9322 6.16239 17.0488 6.16035 17.1651 6.16612C17.244 6.17003 17.2674 6.14359 17.2667 6.06632C17.2633 5.67291 17.265 5.2793 17.2653 4.88589C17.2653 4.85163 17.2693 4.81719 17.2714 4.78293C17.3164 4.8116 17.3412 4.84269 17.3629 4.87565C17.6295 5.28117 17.8966 5.68631 18.1609 6.09313C18.1955 6.14638 18.2333 6.16816 18.2984 6.1663C18.462 6.16183 18.6257 6.16277 18.7893 6.16574C18.8505 6.16686 18.8719 6.14619 18.8717 6.08531C18.8702 5.41913 18.87 4.75295 18.8719 4.08696C18.8721 4.02012 18.8473 4.00112 18.7832 4.00299C18.6669 4.00671 18.5503 4.00801 18.434 4.00261C18.3593 3.99926 18.3362 4.02328 18.3368 4.09738C18.3402 4.46604 18.3383 4.83469 18.3383 5.20353C18.3385 5.25249 18.3385 5.30146 18.3385 5.35024ZM11.0238 5.36737C11.0671 5.35657 11.0874 5.35136 11.1076 5.34652C11.4708 5.25789 11.6556 4.9613 11.6325 4.65874C11.603 4.27315 11.315 4.01192 10.9192 4.00578C10.5229 3.99964 10.1264 4.00522 9.72983 4.00317C9.66799 4.0028 9.64795 4.02384 9.64814 4.08416C9.64965 4.75016 9.64984 5.41634 9.64795 6.08233C9.64776 6.14973 9.67366 6.16761 9.7372 6.16574C9.85349 6.16221 9.97017 6.16053 10.0863 6.16612C10.1617 6.16965 10.1846 6.14433 10.1829 6.07079C10.1786 5.87268 10.1801 5.67421 10.1831 5.4761C10.1835 5.44725 10.1973 5.40349 10.2185 5.39251C10.2947 5.35322 10.4388 5.39418 10.4972 5.46214C10.6781 5.67253 10.8584 5.88348 11.0408 6.09257C11.066 6.12143 11.1021 6.15997 11.1342 6.16109C11.3309 6.16742 11.528 6.16425 11.7422 6.16425C11.4979 5.89335 11.2661 5.63623 11.0238 5.36737ZM8.06918 4.47218C8.11721 4.47218 8.15446 4.47218 8.19171 4.47218C8.53473 4.47218 8.87756 4.47069 9.22059 4.47348C9.29017 4.47404 9.31665 4.45375 9.31287 4.38355C9.30776 4.28785 9.30833 4.19141 9.31268 4.09552C9.3157 4.02905 9.2966 4.00224 9.22342 4.00261C8.68847 4.00522 8.1537 4.00485 7.61875 4.00299C7.55559 4.0028 7.52874 4.01881 7.52892 4.08603C7.53082 4.75202 7.53044 5.4182 7.5293 6.08419C7.52911 6.14359 7.54878 6.16574 7.61118 6.16556C8.15238 6.1637 8.69357 6.16407 9.23477 6.16537C9.29131 6.16556 9.31438 6.14694 9.31249 6.08997C9.30946 5.99706 9.30682 5.90378 9.31324 5.81124C9.31873 5.73137 9.28677 5.71182 9.21038 5.71256C8.86735 5.71573 8.52452 5.71145 8.1815 5.71573C8.09376 5.71685 8.05272 5.69655 8.0635 5.60309C8.0705 5.54183 8.06483 5.47927 8.06483 5.41727C8.06501 5.29625 8.06502 5.29569 8.19095 5.2955C8.52131 5.29513 8.85166 5.2942 9.18201 5.29625C9.24876 5.29662 9.28091 5.27949 9.27656 5.20744C9.27145 5.12104 9.27145 5.03372 9.27656 4.94733C9.28072 4.87621 9.25141 4.85796 9.18296 4.85871C8.84939 4.8615 8.51601 4.86001 8.18244 4.86001C8.14614 4.86001 8.10964 4.86001 8.06918 4.86001C8.06918 4.72595 8.06918 4.60642 8.06918 4.47218ZM1.69244 6.16425C1.88703 6.16425 2.06497 6.1663 2.24272 6.16165C2.26408 6.16109 2.29339 6.12869 2.30398 6.10449C2.34804 6.00544 2.38908 5.9049 2.42614 5.80305C2.44845 5.7418 2.48344 5.71759 2.55132 5.71852C2.79356 5.72206 3.03579 5.71778 3.27802 5.72038C3.54843 5.72336 3.47676 5.67961 3.57699 5.91756C3.68061 6.16351 3.67815 6.16444 3.94516 6.16444C4.05294 6.16444 4.16054 6.16444 4.27211 6.16444C4.26681 6.13856 4.26643 6.12907 4.26284 6.12087C3.96407 5.43626 3.66586 4.75128 3.3635 4.06815C3.35045 4.03855 3.3009 4.00764 3.26743 4.00652C3.08514 4.00057 2.90248 4.00708 2.72019 4.00187C2.64984 3.99982 2.62186 4.02943 2.59652 4.08752C2.34993 4.65669 2.10052 5.22419 1.85223 5.79225C1.80061 5.91048 1.75031 6.02945 1.69244 6.16425ZM16.6324 6.16463C16.6237 6.13372 16.6213 6.11845 16.6152 6.10467C16.3204 5.42863 16.0249 4.75295 15.731 4.07653C15.7079 4.02347 15.6779 4.0015 15.6181 4.00299C15.4547 4.00652 15.2908 4.01062 15.1276 4.00187C15.0274 3.99647 14.978 4.0298 14.9389 4.12103C14.6579 4.77585 14.371 5.42844 14.0864 6.08177C14.0762 6.10542 14.07 6.13074 14.0588 6.16481C14.236 6.16481 14.3992 6.16202 14.5622 6.1663C14.624 6.16798 14.653 6.1434 14.6728 6.09015C14.7106 5.98868 14.7481 5.88646 14.7955 5.78927C14.8107 5.75855 14.8572 5.72373 14.8897 5.72318C15.1885 5.71815 15.4873 5.71815 15.786 5.72318C15.8189 5.72373 15.8662 5.75706 15.881 5.78741C15.9309 5.89037 15.9666 5.99985 16.0139 6.10412C16.0254 6.12944 16.0595 6.16128 16.0841 6.16183C16.2629 6.16686 16.4418 6.16463 16.6324 6.16463ZM13.9915 5.71387C13.9268 5.71387 13.8803 5.71498 13.8338 5.71368C13.5174 5.7053 13.3251 5.54872 13.2684 5.24784C13.2571 5.1877 13.2603 5.12458 13.2603 5.06277C13.2608 4.71534 13.4847 4.49415 13.8363 4.49266C13.9998 4.49192 14.1634 4.49024 14.3268 4.49359C14.3931 4.49489 14.4155 4.47181 14.413 4.4072C14.4088 4.29586 14.4155 4.18415 14.4088 4.07299C14.4073 4.04897 14.3691 4.00708 14.348 4.00727C14.0876 4.00894 13.8243 3.99591 13.5674 4.02831C13.1642 4.07932 12.8913 4.30536 12.7745 4.69803C12.7087 4.9194 12.7109 5.14395 12.7471 5.36867C12.8253 5.85779 13.203 6.17524 13.6922 6.16277C13.7258 6.16183 13.7748 6.14098 13.7894 6.11473C13.8589 5.99054 13.9185 5.86114 13.9915 5.71387ZM12.4288 5.09405C12.4288 4.75947 12.4277 4.42489 12.4299 4.09031C12.4303 4.02756 12.4133 4.00038 12.345 4.0028C12.2225 4.00708 12.0996 4.00597 11.9771 4.00317C11.9192 4.00187 11.8872 4.01695 11.8901 4.08044C11.8929 4.14542 11.8904 4.21059 11.8904 4.27557C11.8904 4.87025 11.891 5.46512 11.8897 6.0598C11.8895 6.12832 11.8973 6.17208 11.9859 6.16649C12.1019 6.15923 12.2189 6.16035 12.335 6.1663C12.4122 6.17021 12.4313 6.14173 12.4305 6.06986C12.4269 5.74459 12.4288 5.41932 12.4288 5.09405Z" fill="white"/>
<path d="M20.6888 7.44057L20.6884 7.43442C20.654 7.43293 20.6192 7.43442 20.5846 7.43442C16.904 7.43442 12.9588 7.43479 9.27826 7.43237C9.17596 7.43219 9.10807 7.45993 9.04964 7.5426C8.97344 7.65059 8.88437 7.74964 8.79361 7.86135C8.69906 7.73996 8.61056 7.63197 8.52887 7.51876C8.48424 7.45714 8.43281 7.43293 8.35528 7.43312C7.38237 7.43517 6.40966 7.43442 5.43675 7.43461C5.311 7.43461 5.30874 7.43684 5.30874 7.55842C5.30855 8.45752 5.30855 9.35643 5.30874 10.2555C5.30874 10.3823 5.3093 10.3827 5.44148 10.3827C6.40172 10.3827 7.36195 10.3816 8.32219 10.3846C8.41068 10.3849 8.46779 10.3598 8.5179 10.2881C8.59713 10.1745 8.68695 10.068 8.7798 9.94869C8.88172 10.0822 8.97117 10.2051 9.0678 10.3226C9.092 10.3518 9.13833 10.3797 9.17464 10.3801C9.75724 10.3836 10.3397 10.3818 10.9221 10.3834C10.9886 10.3836 11.0094 10.3581 11.0083 10.295C11.0053 10.1433 11.0074 9.99133 11.0074 9.8394C11.0074 9.71019 11.0077 9.71615 11.1431 9.70851C11.3589 9.69641 11.5743 9.67705 11.7895 9.65675C11.8366 9.65228 11.8823 9.63106 11.9381 9.61467C11.9381 9.84704 11.9402 10.0667 11.9368 10.2864C11.9358 10.3589 11.9612 10.3844 12.0353 10.3838C12.3942 10.3812 12.7531 10.3806 13.112 10.3842C13.1937 10.3849 13.216 10.352 13.2136 10.2792C13.21 10.1786 13.2126 10.0781 13.2126 9.94925C13.3191 10.0777 13.411 10.1788 13.4908 10.2887C13.5449 10.3628 13.6069 10.3846 13.6975 10.3846C15.7439 10.3821 17.7903 10.3831 19.8369 10.3814C19.8418 10.3814 19.8492 10.3812 19.8586 10.3806V10.3823H20.6888C20.8255 10.3823 20.9365 10.273 20.9365 10.1384V7.68447C20.9365 7.54967 20.8255 7.44057 20.6888 7.44057ZM7.49942 9.64782C7.49167 9.73402 7.49602 9.82134 7.49829 9.9081C7.4998 9.96005 7.47843 9.97904 7.42587 9.97886C6.88127 9.97792 6.33667 9.97737 5.79207 9.97923C5.72324 9.9796 5.717 9.94516 5.71719 9.89191C5.71832 9.56031 5.71775 9.22871 5.71775 8.89692C5.71775 8.56849 5.71983 8.23987 5.71624 7.91143C5.71548 7.83789 5.73799 7.81573 5.81306 7.81611C6.34177 7.8189 6.87068 7.81927 7.39958 7.81592C7.48089 7.81536 7.5034 7.84292 7.49905 7.91776C7.49375 8.01049 7.49413 8.10395 7.49905 8.19667C7.50264 8.26612 7.4773 8.28753 7.40715 8.28697C7.06393 8.28418 6.72091 8.28567 6.3777 8.28586C6.2512 8.28586 6.25101 8.28604 6.25082 8.41451C6.25082 8.47037 6.25536 8.5266 6.24987 8.58171C6.24136 8.66531 6.27805 8.68858 6.35841 8.68802C6.68896 8.68486 7.0195 8.68951 7.35004 8.68486C7.44118 8.68374 7.47465 8.71185 7.46709 8.80122C7.46066 8.8783 7.46255 8.95632 7.46671 9.03358C7.4703 9.10303 7.44194 9.12407 7.37273 9.12351C7.0454 9.12053 6.71808 9.12165 6.39056 9.12239C6.2389 9.12277 6.25195 9.10489 6.25082 9.26446C6.25044 9.32329 6.25479 9.3825 6.24987 9.44096C6.24401 9.51134 6.27256 9.5307 6.34196 9.53014C6.6882 9.52717 7.03462 9.53257 7.38067 9.52642C7.47976 9.52475 7.50756 9.55565 7.49942 9.64782ZM9.17237 8.9969C9.41989 9.29369 9.6608 9.59606 9.90398 9.89637C9.92138 9.91797 9.93708 9.94069 9.9643 9.97718C9.74495 9.97718 9.53903 9.97997 9.33348 9.9742C9.30492 9.97327 9.27278 9.93436 9.25084 9.90662C9.09654 9.71149 8.94432 9.51451 8.7832 9.30765C8.75465 9.3393 8.73139 9.36202 8.71173 9.38753C8.57936 9.56087 8.44642 9.73383 8.3167 9.90904C8.28002 9.95856 8.24087 9.98165 8.17601 9.97997C7.99448 9.97532 7.81276 9.9783 7.60872 9.9783C7.8536 9.67909 8.08184 9.3987 8.3116 9.11997C8.48027 8.91535 8.48027 8.91703 8.31141 8.71129C8.08411 8.43406 7.85852 8.15552 7.63236 7.87718C7.6212 7.86358 7.61269 7.84776 7.59322 7.81797C7.8103 7.81797 8.0132 7.81573 8.2161 7.82057C8.24277 7.82113 8.27416 7.85316 8.29382 7.87792C8.43999 8.06038 8.58352 8.2449 8.72818 8.42848C8.74709 8.45231 8.76827 8.47428 8.79777 8.50779C8.89855 8.381 8.99291 8.26277 9.08671 8.14398C9.15818 8.05349 9.22796 7.9617 9.30114 7.87271C9.31967 7.85018 9.3486 7.82132 9.37319 7.82076C9.56701 7.81648 9.76103 7.81834 9.97622 7.81834C9.9401 7.86545 9.91703 7.89672 9.89245 7.92689C9.65248 8.22181 9.4146 8.51878 9.1701 8.81016C9.10996 8.88184 9.11356 8.92653 9.17237 8.9969ZM11.4952 9.24937C11.2513 9.29499 10.9955 9.28028 10.7449 9.2894C10.6157 9.29406 10.6156 9.29034 10.6154 9.41732C10.615 9.57539 10.6122 9.73346 10.6165 9.89135C10.6186 9.9621 10.5919 9.98314 10.5233 9.98072C10.407 9.97644 10.2901 9.97532 10.174 9.9809C10.0972 9.98481 10.0772 9.95577 10.078 9.88446C10.0808 9.55584 10.0793 9.2274 10.0793 8.89897C10.0793 8.57035 10.0808 8.24192 10.078 7.91348C10.0774 7.84348 10.0948 7.81499 10.1731 7.81592C10.5318 7.81983 10.8907 7.81238 11.2494 7.81927C11.5175 7.82448 11.7696 7.8809 11.9355 8.11959C12.1945 8.49252 12.092 9.13748 11.4952 9.24937ZM14.3383 9.97793C14.1778 9.97867 14.0172 9.98239 13.8571 9.97569C13.8136 9.97383 13.7591 9.95 13.7306 9.91816C13.5415 9.70665 13.3584 9.48993 13.1729 9.27525C13.1152 9.2086 12.9791 9.17155 12.9015 9.2099C12.88 9.22052 12.8647 9.26334 12.8641 9.29164C12.8609 9.48676 12.8582 9.68207 12.8643 9.87701C12.8669 9.96135 12.8371 9.98407 12.7559 9.97979C12.6398 9.97383 12.5232 9.97644 12.4069 9.97904C12.3501 9.98035 12.3293 9.96042 12.3293 9.90364C12.3307 9.23448 12.3309 8.56551 12.3292 7.89654C12.329 7.8351 12.3515 7.81629 12.4122 7.81666C12.7834 7.81853 13.1546 7.81313 13.5258 7.81946C13.7256 7.82299 13.921 7.8606 14.0783 7.99782C14.2886 8.18159 14.3531 8.41675 14.2931 8.67871C14.2356 8.92969 14.0617 9.08274 13.8153 9.15852C13.7943 9.16503 13.7729 9.16969 13.7519 9.17602C13.7432 9.17881 13.7353 9.18384 13.7096 9.19631C13.9442 9.45511 14.1717 9.70591 14.4085 9.96675C14.3769 9.97197 14.3576 9.97774 14.3383 9.97793ZM16.3584 9.6251C16.3518 9.71764 16.3545 9.81091 16.3577 9.90382C16.3596 9.96117 16.3359 9.97923 16.2798 9.97904C15.7382 9.97774 15.1966 9.97755 14.6552 9.97941C14.5909 9.9796 14.5752 9.95391 14.5752 9.89619C14.5766 9.22964 14.5768 8.56327 14.5752 7.89672C14.5751 7.83584 14.5972 7.81648 14.6583 7.81666C15.1966 7.81834 15.735 7.81853 16.2733 7.81648C16.342 7.81611 16.3603 7.84199 16.3579 7.90436C16.3541 8.00024 16.3524 8.09688 16.3582 8.19258C16.363 8.2678 16.3346 8.2879 16.2609 8.28716C15.9146 8.28399 15.5682 8.28883 15.222 8.28362C15.1287 8.28213 15.099 8.31174 15.1087 8.39943C15.1151 8.45771 15.1151 8.51766 15.1087 8.57594C15.0992 8.66195 15.1331 8.68914 15.2195 8.68821C15.5406 8.68448 15.8617 8.68672 16.1828 8.68672C16.3193 8.6869 16.3193 8.6869 16.3195 8.82487C16.3195 8.89301 16.3148 8.96172 16.3206 9.0293C16.327 9.10508 16.2966 9.12444 16.223 9.1237C15.8957 9.12035 15.5682 9.12221 15.2407 9.12221H15.1157V9.52884H15.225C15.5682 9.52884 15.9112 9.53052 16.2544 9.52735C16.3297 9.52661 16.3641 9.54374 16.3584 9.6251ZM18.0378 9.94925C17.9658 9.96787 17.8894 9.97644 17.8149 9.97699C17.456 9.97979 17.097 9.97644 16.7383 9.97979C16.6621 9.98053 16.6296 9.96154 16.6351 9.88148C16.6415 9.79211 16.64 9.70162 16.6355 9.61207C16.6322 9.54541 16.6593 9.52717 16.7238 9.52772C17.0354 9.53014 17.347 9.52884 17.6587 9.52884C17.6901 9.52884 17.7216 9.5294 17.753 9.52847C17.8831 9.524 17.9782 9.44282 17.9777 9.33726C17.9769 9.22759 17.8888 9.14604 17.7562 9.14288C17.58 9.13897 17.4036 9.14585 17.2275 9.13934C17.1407 9.13617 17.0517 9.12295 16.969 9.09726C16.6445 8.99672 16.5415 8.70459 16.5691 8.41917C16.6065 8.0332 16.9144 7.85353 17.25 7.83733C17.6331 7.81908 18.0172 7.82318 18.4009 7.81778C18.4194 7.8176 18.4377 7.81983 18.4799 7.82244C18.4065 7.9766 18.3434 8.11717 18.2711 8.25309C18.2594 8.27506 18.2072 8.28511 18.1738 8.28548C17.9094 8.28809 17.6449 8.28623 17.3805 8.28772C17.3338 8.2879 17.2863 8.2933 17.2409 8.30373C17.1386 8.32719 17.0948 8.38212 17.0935 8.47856C17.0923 8.57743 17.1405 8.64687 17.2347 8.67219C17.2735 8.68262 17.3153 8.6856 17.3555 8.68616C17.5412 8.68858 17.7271 8.68597 17.9126 8.69063C18.243 8.69901 18.451 8.86955 18.5022 9.19147C18.5561 9.53052 18.3933 9.85802 18.0378 9.94925ZM20.5386 9.38101C20.5104 9.72266 20.2627 9.97327 19.8586 9.97848C19.8533 9.97867 19.848 9.97867 19.8425 9.97867C19.4869 9.97737 19.1312 9.97644 18.7757 9.97979C18.6993 9.98053 18.6667 9.96061 18.6718 9.88129C18.6775 9.7949 18.6771 9.70758 18.672 9.62119C18.6675 9.54578 18.6981 9.52661 18.7711 9.52735C19.0952 9.5307 19.4193 9.52903 19.7435 9.52866C19.786 9.52866 19.8248 9.52344 19.8586 9.51395C19.9571 9.48583 20.0154 9.42029 20.0127 9.3326C20.0099 9.24398 19.9543 9.18272 19.8586 9.15609C19.8261 9.14697 19.7888 9.14194 19.7476 9.14101C19.5341 9.13673 19.3195 9.14157 19.1075 9.12146C18.8235 9.09428 18.6238 8.86769 18.6011 8.58338C18.5624 8.09539 18.8842 7.86619 19.2857 7.83603C19.4759 7.82169 19.6676 7.82095 19.8586 7.81853C19.8686 7.81834 19.8787 7.81834 19.8887 7.81815C20.0897 7.81536 20.2907 7.8176 20.5148 7.8176C20.4399 7.97474 20.3766 8.11549 20.3041 8.2516C20.2924 8.27375 20.2408 8.28511 20.2075 8.28548C20.0912 8.2866 19.9749 8.28679 19.8586 8.28679C19.7011 8.2866 19.5436 8.28641 19.3861 8.2879C19.2908 8.28884 19.1936 8.29945 19.1421 8.39645C19.0695 8.53349 19.1739 8.68225 19.3469 8.68579C19.5175 8.68932 19.6882 8.68579 19.8586 8.68876C19.8894 8.68932 19.9203 8.69007 19.9511 8.69119C20.3472 8.70534 20.5726 8.96954 20.5386 9.38101Z" fill="white"/>
<path d="M5.75737 5.41594C5.77949 5.36753 5.79519 5.33885 5.80596 5.30851C5.94798 4.90876 6.09112 4.5092 6.22879 4.10796C6.25658 4.02734 6.29591 3.99886 6.38403 4.00165C6.60093 4.00891 6.81839 4.00612 7.03566 4.00277C7.10241 4.00184 7.12227 4.02474 7.12208 4.08897C7.12038 4.75236 7.12038 5.41575 7.12208 6.07895C7.12227 6.14226 7.10412 6.16832 7.03642 6.1659C6.91691 6.16162 6.79702 6.16106 6.6777 6.16609C6.6049 6.16907 6.58731 6.14077 6.58769 6.07393C6.58996 5.61199 6.58883 5.15025 6.58883 4.68831C6.58883 4.65592 6.58883 4.6237 6.58883 4.59131C6.58032 4.58963 6.57162 4.58796 6.56311 4.58628C6.54855 4.62147 6.53248 4.6561 6.51943 4.69185C6.35019 5.15453 6.18038 5.61683 6.01378 6.08026C5.99166 6.1417 5.96405 6.17149 5.89314 6.16646C5.79916 6.15976 5.70404 6.16069 5.61006 6.16627C5.54198 6.17037 5.51059 6.14691 5.48752 6.08305C5.32093 5.61944 5.15036 5.15732 4.98093 4.69483C4.9677 4.65852 4.952 4.62315 4.91532 4.58982C4.91361 4.62147 4.9104 4.65312 4.9104 4.68459C4.91002 5.14336 4.90832 5.60212 4.91191 6.06089C4.91248 6.1417 4.89092 6.17149 4.80621 6.16646C4.69332 6.15976 4.57948 6.16218 4.4664 6.1659C4.40324 6.16795 4.37658 6.15063 4.37696 6.08286C4.37904 5.41649 4.37885 4.74994 4.37715 4.08357C4.37696 4.0225 4.39851 4.00258 4.45978 4.00333C4.68953 4.00593 4.91948 4.00779 5.14923 4.00277C5.22146 4.00109 5.24851 4.03237 5.26968 4.09139C5.41434 4.49356 5.56108 4.89517 5.70744 5.29678C5.71974 5.33066 5.73524 5.36343 5.75737 5.41594Z" fill="#026FCF"/>
<path d="M18.3388 5.3504C18.3388 5.30143 18.3388 5.25265 18.3388 5.20368C18.3388 4.83503 18.3407 4.4662 18.3373 4.09755C18.3365 4.02326 18.3598 3.99924 18.4345 4.00278C18.5506 4.00818 18.6674 4.00687 18.7837 4.00315C18.8478 4.0011 18.8726 4.02009 18.8724 4.08712C18.8703 4.7533 18.8705 5.41948 18.8722 6.08547C18.8724 6.14635 18.8513 6.16702 18.7898 6.1659C18.6262 6.16292 18.4625 6.16181 18.2989 6.16646C18.234 6.16832 18.196 6.14654 18.1614 6.09329C17.8971 5.68647 17.6301 5.28133 17.3634 4.87581C17.3417 4.84285 17.3171 4.81176 17.2719 4.78309C17.2698 4.81735 17.2661 4.85179 17.2659 4.88605C17.2655 5.27946 17.2638 5.67306 17.2672 6.06648C17.2679 6.14374 17.2445 6.17037 17.1656 6.16627C17.0495 6.1605 16.9329 6.16255 16.8164 6.16572C16.7566 6.16739 16.7322 6.14933 16.7324 6.08677C16.7341 5.41761 16.7339 4.74827 16.7326 4.07911C16.7324 4.02251 16.753 4.00259 16.81 4.00333C16.9924 4.00557 17.1751 4.00036 17.3574 4.00743C17.3946 4.00892 17.4427 4.04337 17.4646 4.07613C17.7284 4.47234 17.9882 4.87115 18.2494 5.26904C18.2692 5.29939 18.2917 5.32787 18.3129 5.35729C18.3214 5.35506 18.3301 5.35282 18.3388 5.3504Z" fill="#026FCF"/>
<path d="M11.0243 5.36745C11.2667 5.6363 11.4985 5.89343 11.7427 6.16414C11.5284 6.16414 11.3314 6.16731 11.1347 6.16098C11.1026 6.15986 11.0666 6.12132 11.0413 6.09246C10.8588 5.88337 10.6786 5.67242 10.4977 5.46203C10.4392 5.39407 10.2953 5.35311 10.2189 5.3924C10.1976 5.40338 10.184 5.44695 10.1836 5.47599C10.1806 5.67428 10.179 5.87257 10.1834 6.07068C10.1851 6.14422 10.1622 6.16973 10.0868 6.166C9.97066 6.16042 9.85398 6.16191 9.73769 6.16563C9.67416 6.16768 9.64825 6.14962 9.64844 6.08222C9.65052 5.41623 9.65033 4.75005 9.64863 4.08406C9.64844 4.02373 9.66848 4.00269 9.73032 4.00306C10.1268 4.00511 10.5234 3.99953 10.9197 4.00567C11.3155 4.01182 11.6035 4.27304 11.633 4.65863C11.6561 4.96137 11.4715 5.25778 11.1081 5.34641C11.0878 5.35162 11.0676 5.35665 11.0243 5.36745ZM10.5449 4.95262C10.5449 4.95243 10.5449 4.95225 10.5449 4.95206C10.6453 4.95206 10.7461 4.95634 10.8462 4.95094C10.9872 4.9435 11.1079 4.82303 11.1026 4.70276C11.0971 4.57727 10.9764 4.47356 10.8318 4.47263C10.6435 4.47151 10.4551 4.47468 10.2668 4.47114C10.2004 4.46984 10.1785 4.49255 10.1809 4.5566C10.1849 4.66161 10.1841 4.76681 10.1813 4.87182C10.1796 4.93084 10.2004 4.95579 10.2626 4.95355C10.3564 4.95001 10.4508 4.95262 10.5449 4.95262Z" fill="#026FCF"/>
<path d="M8.06955 4.47231C8.06955 4.60656 8.06955 4.72627 8.06955 4.86033C8.1102 4.86033 8.14651 4.86033 8.18282 4.86033C8.51638 4.86033 8.84995 4.86182 9.18333 4.85903C9.25159 4.85847 9.28109 4.87653 9.27693 4.94765C9.27183 5.03404 9.27183 5.12137 9.27693 5.20776C9.28109 5.27981 9.24914 5.29694 9.18238 5.29657C8.85203 5.29434 8.52168 5.29545 8.19133 5.29582C8.06558 5.29601 8.06558 5.29657 8.0652 5.41759C8.06501 5.47959 8.07087 5.54215 8.06388 5.60341C8.0531 5.69687 8.09413 5.71717 8.18187 5.71605C8.52471 5.71177 8.86773 5.71624 9.21075 5.71289C9.28696 5.71214 9.3191 5.73169 9.31362 5.81157C9.30719 5.9041 9.30984 5.99738 9.31286 6.09029C9.31475 6.14726 9.29168 6.16588 9.23514 6.1657C8.69395 6.16439 8.15275 6.16421 7.61156 6.16588C7.54915 6.16607 7.52968 6.14391 7.52968 6.08452C7.531 5.41852 7.53119 4.75234 7.5293 4.08635C7.52911 4.01913 7.55596 4.00293 7.61912 4.00331C8.15407 4.00517 8.68884 4.00554 9.2238 4.00293C9.29698 4.00256 9.31608 4.02937 9.31305 4.09584C9.3087 4.19173 9.30813 4.28799 9.31324 4.38387C9.31683 4.45407 9.29036 4.47436 9.22096 4.4738C8.87794 4.47101 8.53511 4.4725 8.19208 4.4725C8.15483 4.47231 8.11758 4.47231 8.06955 4.47231Z" fill="#026FCF"/>
<path d="M1.69141 6.16431C1.74927 6.02951 1.79957 5.91072 1.85119 5.79231C2.09948 5.22425 2.34871 4.65656 2.59548 4.08794C2.62063 4.02985 2.6488 4.00025 2.71915 4.0023C2.90144 4.00751 3.08411 4.00099 3.2664 4.00695C3.29987 4.00807 3.34941 4.03898 3.36246 4.06858C3.66463 4.7517 3.96303 5.43669 4.2618 6.1213C4.26539 6.12949 4.26577 6.13899 4.27107 6.16487C4.15969 6.16487 4.0519 6.16487 3.94412 6.16487C3.6773 6.16487 3.67957 6.16394 3.57595 5.91798C3.47573 5.68004 3.54739 5.72379 3.27698 5.72081C3.03475 5.71802 2.79252 5.72249 2.55028 5.71895C2.4824 5.71802 2.44723 5.74222 2.4251 5.80348C2.38823 5.90532 2.34719 6.00586 2.30295 6.10492C2.29217 6.12893 2.26305 6.16152 2.24168 6.16208C2.06393 6.16636 1.88599 6.16431 1.69141 6.16431ZM2.65126 5.26204C2.87515 5.26204 3.08032 5.26204 3.30195 5.26204C3.19529 5.00064 3.09337 4.75133 2.99164 4.50184C2.98162 4.50202 2.97159 4.5024 2.96176 4.50258C2.85965 4.75245 2.75754 5.00213 2.65126 5.26204Z" fill="#026FCF"/>
<path d="M16.6318 6.16459C16.4412 6.16459 16.2625 6.16683 16.0838 6.16199C16.0592 6.16124 16.025 6.12959 16.0137 6.10427C15.9664 6 15.9307 5.89034 15.8807 5.78756C15.866 5.75722 15.8187 5.72389 15.7858 5.72333C15.487 5.71849 15.1883 5.7183 14.8895 5.72333C14.8568 5.72389 14.8103 5.75852 14.7953 5.78943C14.7477 5.88662 14.7104 5.98883 14.6726 6.09031C14.6527 6.14337 14.6238 6.16795 14.562 6.16646C14.399 6.16217 14.2358 6.16497 14.0586 6.16497C14.0699 6.13089 14.076 6.10557 14.0862 6.08193C14.3708 5.42841 14.6575 4.77601 14.9387 4.12118C14.9778 4.02995 15.0273 3.99662 15.1274 4.00202C15.2904 4.01077 15.4543 4.00668 15.6179 4.00314C15.6776 4.00184 15.7077 4.02362 15.7308 4.07668C16.0244 4.7531 16.32 5.42897 16.615 6.10483C16.6207 6.11842 16.6231 6.1335 16.6318 6.16459ZM15.3522 4.50399C15.3416 4.50436 15.331 4.50473 15.3204 4.5051C15.2185 4.75459 15.1166 5.0039 15.0107 5.26307C15.234 5.26307 15.4392 5.26307 15.6618 5.26307C15.5555 5.0026 15.4539 4.75329 15.3522 4.50399Z" fill="#026FCF"/>
<path d="M13.9918 5.71392C13.9188 5.86119 13.8592 5.99059 13.79 6.11478C13.7754 6.14103 13.7265 6.16207 13.6928 6.16282C13.2036 6.17529 12.826 5.85784 12.7477 5.36873C12.7118 5.144 12.7093 4.91946 12.7751 4.69808C12.892 4.30541 13.1648 4.07919 13.568 4.02836C13.825 3.99596 14.0882 4.009 14.3486 4.00732C14.3698 4.00713 14.408 4.04903 14.4095 4.07305C14.4161 4.1842 14.4095 4.29591 14.4136 4.40725C14.4161 4.47186 14.3936 4.49495 14.3274 4.49364C14.164 4.49029 14.0003 4.49197 13.8369 4.49271C13.4852 4.4942 13.2615 4.71539 13.2609 5.06282C13.2607 5.12463 13.2577 5.18775 13.269 5.24789C13.3258 5.54877 13.5181 5.70554 13.8344 5.71373C13.8806 5.71504 13.9271 5.71392 13.9918 5.71392Z" fill="#026FCF"/>
<path d="M12.428 5.09408C12.428 5.41935 12.4261 5.74462 12.4295 6.06989C12.4302 6.14195 12.4111 6.17025 12.334 6.16634C12.2179 6.16056 12.1008 6.15926 11.9849 6.16652C11.8962 6.17211 11.8885 6.12835 11.8887 6.05984C11.8902 5.46515 11.8894 4.87028 11.8894 4.2756C11.8894 4.21062 11.8919 4.14545 11.8891 4.08047C11.8862 4.01698 11.9182 4.0019 11.976 4.00321C12.0988 4.006 12.2215 4.00712 12.344 4.00283C12.4123 4.00041 12.4293 4.0276 12.4289 4.09034C12.4268 4.42492 12.428 4.7595 12.428 5.09408Z" fill="#026FCF"/>
<path d="M13.7105 9.19644C13.7362 9.18397 13.7441 9.17894 13.7528 9.17615C13.7738 9.16982 13.7952 9.16516 13.8162 9.15864C14.0626 9.08287 14.2366 8.92982 14.294 8.67884C14.354 8.41688 14.2895 8.18172 14.0792 7.99796C13.9219 7.86074 13.7266 7.82313 13.5267 7.81959C13.1555 7.81326 12.7843 7.81866 12.4131 7.81679C12.3524 7.81642 12.3299 7.83523 12.3301 7.89667C12.3318 8.56564 12.3316 9.23461 12.3303 9.90376C12.3303 9.96055 12.3511 9.98047 12.4078 9.97917C12.5241 9.97656 12.6408 9.97396 12.7569 9.97991C12.838 9.9842 12.8679 9.96148 12.8652 9.87714C12.8592 9.6822 12.8618 9.48689 12.865 9.29177C12.8656 9.26347 12.8809 9.22064 12.9025 9.21003C12.98 9.17168 13.1162 9.20873 13.1738 9.27538C13.3593 9.49006 13.5424 9.70678 13.7315 9.91829C13.76 9.95012 13.8145 9.97396 13.858 9.97582C14.0181 9.98252 14.1787 9.9788 14.3392 9.97805C14.3585 9.97787 14.3778 9.9721 14.4094 9.96688C14.1726 9.70603 13.9452 9.45524 13.7105 9.19644ZM13.3934 8.76653C13.3414 8.76653 13.2892 8.76635 13.2372 8.76635C13.2081 8.76635 13.1787 8.76616 13.1496 8.76598C13.0781 8.7656 13.0069 8.76523 12.9356 8.76691C12.8838 8.76821 12.8616 8.75071 12.8628 8.69783C12.8654 8.58333 12.8652 8.46882 12.863 8.35432C12.862 8.30051 12.8873 8.28524 12.9375 8.28561C13.1322 8.28692 13.3272 8.28338 13.522 8.28729C13.663 8.29008 13.7839 8.40664 13.784 8.53026C13.784 8.66097 13.6636 8.76523 13.5106 8.76616C13.4715 8.76635 13.4323 8.76653 13.3934 8.76653Z" fill="#026FCF"/>
<path d="M7.49999 9.64783C7.49224 9.73403 7.49659 9.82135 7.49886 9.90812C7.50037 9.96006 7.479 9.97906 7.42644 9.97887C6.88184 9.97794 6.33724 9.97738 5.79264 9.97924C5.72381 9.97961 5.71757 9.94517 5.71776 9.89192C5.7189 9.56032 5.71833 9.22872 5.71833 8.89693C5.71833 8.5685 5.72041 8.23988 5.71682 7.91144C5.71606 7.8379 5.73856 7.81574 5.81363 7.81611C6.34235 7.81891 6.87125 7.81928 7.40015 7.81593C7.48146 7.81537 7.50397 7.84292 7.49962 7.91777C7.49432 8.01049 7.4947 8.10396 7.49962 8.19668C7.50321 8.26613 7.47787 8.28754 7.40772 8.28698C7.06451 8.28419 6.72148 8.28568 6.37827 8.28586C6.25177 8.28586 6.25158 8.28605 6.25139 8.41452C6.25139 8.47038 6.25593 8.5266 6.25045 8.58172C6.24194 8.66531 6.27862 8.68859 6.35899 8.68803C6.68953 8.68486 7.02007 8.68952 7.35061 8.68486C7.44175 8.68375 7.47522 8.71186 7.46766 8.80123C7.46123 8.87831 7.46312 8.95633 7.46728 9.03359C7.47087 9.10304 7.44251 9.12408 7.3733 9.12352C7.04597 9.12054 6.71865 9.12166 6.39113 9.12241C6.23948 9.12278 6.25253 9.1049 6.25139 9.26447C6.25101 9.3233 6.25536 9.38251 6.25045 9.44097C6.24458 9.51135 6.27314 9.53072 6.34254 9.53016C6.68877 9.52718 7.0352 9.53258 7.38124 9.52643C7.48033 9.52476 7.50813 9.55566 7.49999 9.64783Z" fill="#026FCF"/>
<path d="M16.3594 9.62529C16.3528 9.71782 16.3554 9.8111 16.3586 9.90401C16.3605 9.96136 16.3369 9.97942 16.2807 9.97923C15.7391 9.97793 15.1976 9.97774 14.6562 9.9796C14.5919 9.97979 14.5762 9.95409 14.5762 9.89638C14.5775 9.22982 14.5777 8.56346 14.5762 7.8969C14.576 7.83602 14.5981 7.81665 14.6592 7.81684C15.1976 7.81852 15.7359 7.8187 16.2743 7.81665C16.3429 7.81628 16.3613 7.84216 16.3588 7.90454C16.355 8.00042 16.3533 8.09705 16.3592 8.19275C16.3639 8.26797 16.3356 8.28808 16.2618 8.28734C15.9156 8.28417 15.5691 8.28901 15.2229 8.2838C15.1297 8.28231 15.1 8.31192 15.1096 8.39961C15.1161 8.45789 15.1161 8.51784 15.1096 8.57612C15.1002 8.66213 15.134 8.68932 15.2204 8.68839C15.5415 8.68466 15.8626 8.6869 16.1837 8.6869C16.3202 8.68708 16.3202 8.68708 16.3204 8.82505C16.3204 8.89319 16.3157 8.9619 16.3216 9.02948C16.328 9.10526 16.2975 9.12463 16.224 9.12388C15.8967 9.12053 15.5691 9.12239 15.2416 9.12239H15.1166V9.52903H15.2259C15.5691 9.52903 15.9122 9.5307 16.2554 9.52754C16.3306 9.52679 16.3651 9.54392 16.3594 9.62529Z" fill="#026FCF"/>
<path d="M18.0394 9.94937C17.9674 9.96799 17.891 9.97655 17.8165 9.97711C17.4576 9.9799 17.0986 9.97655 16.7399 9.9799C16.6637 9.98065 16.6312 9.96165 16.6367 9.88159C16.6431 9.79222 16.6416 9.70174 16.6371 9.61218C16.6338 9.54552 16.6609 9.52728 16.7254 9.52784C17.037 9.53026 17.3486 9.52895 17.6603 9.52895C17.6917 9.52895 17.7232 9.52951 17.7546 9.52858C17.8847 9.52411 17.9798 9.44293 17.9793 9.33737C17.9785 9.2277 17.8904 9.14615 17.7578 9.14298C17.5816 9.13907 17.4052 9.14596 17.2291 9.13945C17.1423 9.13628 17.0533 9.12306 16.9706 9.09737C16.6461 8.99683 16.5431 8.7047 16.5707 8.41927C16.6081 8.0333 16.916 7.85363 17.2516 7.83743C17.6347 7.81919 18.0188 7.82328 18.4025 7.81788C18.421 7.8177 18.4394 7.81993 18.4815 7.82254C18.4081 7.9767 18.345 8.11727 18.2728 8.25319C18.261 8.27516 18.2088 8.28521 18.1754 8.28559C17.911 8.28819 17.6465 8.28633 17.3821 8.28782C17.3354 8.28801 17.2879 8.29341 17.2425 8.30383C17.1402 8.32729 17.0964 8.38222 17.0951 8.47866C17.0939 8.57753 17.1421 8.64698 17.2363 8.6723C17.2751 8.68273 17.3169 8.68571 17.3571 8.68626C17.5428 8.68868 17.7287 8.68608 17.9142 8.69073C18.2446 8.69911 18.4526 8.86966 18.5038 9.19158C18.5577 9.53063 18.3949 9.85813 18.0394 9.94937Z" fill="#026FCF"/>
<path d="M11.9357 8.11961C11.7698 7.88092 11.5178 7.8245 11.2496 7.81929C10.8909 7.8124 10.532 7.81985 10.1733 7.81594C10.095 7.81501 10.0776 7.8435 10.0781 7.9135C10.081 8.24194 10.0795 8.57038 10.0795 8.899C10.0795 9.22744 10.081 9.55588 10.0781 9.8845C10.0774 9.95581 10.0974 9.98486 10.1742 9.98095C10.2903 9.97536 10.4072 9.97648 10.5235 9.98076C10.5921 9.98318 10.6188 9.96214 10.6167 9.89139C10.6124 9.7335 10.6152 9.57543 10.6156 9.41735C10.6158 9.29037 10.6159 9.29409 10.7451 9.28944C10.9957 9.28032 11.2515 9.29503 11.4954 9.24941C12.0922 9.13751 12.1947 8.49255 11.9357 8.11961ZM11.253 8.81838C11.1779 8.8236 11.1025 8.82024 11.027 8.82024C10.9172 8.82043 10.8073 8.81913 10.6974 8.82043C10.6447 8.82117 10.6144 8.80498 10.6154 8.74689C10.6171 8.61711 10.6167 8.48715 10.6156 8.35738C10.6152 8.30506 10.6415 8.28644 10.6912 8.287C10.7854 8.28812 10.8795 8.28737 10.9737 8.28737C11.0647 8.28756 11.1558 8.28421 11.2468 8.2883C11.4173 8.29594 11.5282 8.39964 11.5323 8.5499C11.5363 8.69457 11.4219 8.80684 11.253 8.81838Z" fill="#026FCF"/>
<path d="M9.90452 9.89631C9.92191 9.91791 9.93761 9.94062 9.96484 9.97712C9.74549 9.97712 9.53956 9.97991 9.33401 9.97414C9.30546 9.97321 9.27331 9.93429 9.25138 9.90655C9.09707 9.71143 8.94485 9.51444 8.78374 9.30759C8.75518 9.33924 8.73193 9.36195 8.71226 9.38746C8.57989 9.5608 8.44696 9.73377 8.31724 9.90897C8.28055 9.9585 8.24141 9.98159 8.17655 9.97991C7.99501 9.97526 7.81329 9.97823 7.60926 9.97823C7.85414 9.67903 8.08238 9.39863 8.31213 9.11991C8.4808 8.91529 8.4808 8.91696 8.31194 8.71123C8.08465 8.43399 7.85905 8.15546 7.63289 7.87711C7.62174 7.86351 7.61323 7.84769 7.59375 7.8179C7.81083 7.8179 8.01373 7.81566 8.21664 7.8205C8.2433 7.82106 8.27469 7.85309 8.29436 7.87785C8.44053 8.06031 8.58405 8.24483 8.72871 8.42841C8.74762 8.45224 8.7688 8.47421 8.7983 8.50772C8.89909 8.38093 8.99345 8.2627 9.08724 8.14391C9.15872 8.05343 9.22849 7.96163 9.30167 7.87264C9.32021 7.85011 9.34914 7.82125 9.37372 7.82069C9.56755 7.81641 9.76156 7.81827 9.97675 7.81827C9.94063 7.86538 9.91756 7.89666 9.89298 7.92682C9.65302 8.22174 9.41513 8.51871 9.17063 8.81009C9.1105 8.88177 9.11409 8.92646 9.1729 8.99684C9.42043 9.29362 9.66134 9.59599 9.90452 9.89631Z" fill="#026FCF"/>
<path d="M10.5441 4.95248C10.4499 4.95248 10.3557 4.95006 10.2616 4.95341C10.1995 4.95565 10.1787 4.9307 10.1803 4.87168C10.1833 4.76667 10.184 4.66147 10.1799 4.55646C10.1774 4.49241 10.1992 4.4697 10.2657 4.471C10.4541 4.47454 10.6424 4.47137 10.8307 4.47249C10.9754 4.47342 11.096 4.57731 11.1015 4.70262C11.1068 4.82289 10.9862 4.94336 10.8451 4.9508C10.7449 4.95602 10.6443 4.95192 10.5439 4.95192C10.5441 4.95211 10.5441 4.95229 10.5441 4.95248Z" fill="white"/>
<path d="M2.65234 5.26221C2.75862 5.0023 2.86073 4.75262 2.96284 4.50294C2.97286 4.50276 2.98289 4.50238 2.99272 4.5022C3.09445 4.7515 3.19638 5.00099 3.30303 5.2624C3.0814 5.26221 2.87623 5.26221 2.65234 5.26221Z" fill="white"/>
<path d="M15.3532 4.50415C15.455 4.75346 15.5565 5.00276 15.6628 5.26324C15.4402 5.26324 15.235 5.26324 15.0117 5.26324C15.1176 5.00407 15.2195 4.75476 15.3215 4.50527C15.332 4.5049 15.3426 4.50452 15.3532 4.50415Z" fill="white"/>
<path d="M13.2375 8.76613C13.1369 8.76613 13.0363 8.76427 12.9359 8.76669C12.8843 8.76799 12.8622 8.75049 12.8633 8.69761C12.8658 8.58311 12.8656 8.4686 12.8635 8.3541C12.8626 8.30029 12.8879 8.28502 12.938 8.28521C13.1328 8.2867 13.3277 8.28316 13.5225 8.28707C13.6636 8.28987 13.7844 8.40642 13.7844 8.53004C13.7844 8.66075 13.664 8.76501 13.511 8.76594C13.4198 8.76669 13.3287 8.76631 13.2375 8.76613Z" fill="white"/>
<path d="M10.9736 8.28729C11.0645 8.28748 11.1559 8.28413 11.2466 8.28804C11.4172 8.29567 11.528 8.39938 11.5322 8.54963C11.5361 8.69429 11.4217 8.80656 11.2531 8.81811C11.178 8.82332 11.1025 8.81997 11.0271 8.81997C10.9172 8.82015 10.8074 8.81885 10.6975 8.82015C10.6447 8.82071 10.6145 8.8047 10.6152 8.74643C10.617 8.61665 10.6166 8.48688 10.6156 8.35693C10.6152 8.30461 10.6413 8.28599 10.6913 8.28655C10.7852 8.28804 10.8794 8.28729 10.9736 8.28729Z" fill="white"/>
</svg>
