<svg width="32" height="20" viewBox="0 0 32 20" fill="none" xmlns="http://www.w3.org/2000/svg">
<rect width="32" height="20" rx="2" fill="#EFECE8"/>
<path fill-rule="evenodd" clip-rule="evenodd" d="M15.8774 1.50478C16.3113 1.52404 16.7478 1.52146 17.1839 1.51888C17.981 1.51416 18.777 1.50945 19.555 1.6381C23.3528 2.26622 26.3065 5.31479 26.7375 9.08067C27.1872 13.0118 24.6616 16.3233 21.5586 17.7156C20.3775 18.2461 19.1503 18.5099 17.8462 18.4818C17.2055 18.4678 16.5636 18.4776 15.9219 18.4874H15.9218C15.0045 18.5014 14.0874 18.5154 13.1743 18.4602C9.97645 18.2668 7.60576 16.6669 6.12232 13.8681C3.69435 9.28816 5.96271 2.94879 11.7848 1.70758C12.6264 1.52805 13.5065 1.52625 14.3862 1.52445C14.7901 1.52363 15.1938 1.5228 15.5938 1.50478C15.6558 1.50228 15.7181 1.50311 15.7806 1.50395C15.8119 1.50436 15.8432 1.50478 15.8745 1.50478C15.875 1.49641 15.8755 1.50071 15.8759 1.50502V1.50502C15.8764 1.5094 15.8769 1.51378 15.8774 1.50478ZM21.7351 9.96041C21.8609 5.87718 18.4133 2.03525 13.793 2.02586C9.4488 2.01741 5.85192 5.61993 5.86318 9.96041C5.87445 14.2502 9.246 17.9062 13.8165 17.9128C18.525 17.9194 21.8675 14.0004 21.7351 9.96041ZM15.6868 5.49498C17.235 5.93438 18.6978 7.76146 18.7551 9.83734C18.8161 12.0606 17.2989 13.9703 15.6868 14.4614V5.49498ZM8.90236 10.2403C8.99061 12.0514 10.3342 14.009 11.8983 14.4456V5.48576C10.3989 5.99651 8.78499 7.82922 8.90236 10.2403Z" fill="#0079BE"/>
</svg>
