<svg width="32" height="20" viewBox="0 0 32 20" fill="none" xmlns="http://www.w3.org/2000/svg">
<rect width="32" height="20" rx="2" fill="#F1F1F1"/>
<path d="M20.1426 2.53125H11.8574V17.469H20.1426V2.53125Z" fill="#FF5F00"/>
<path d="M12.3834 9.99999C12.3821 8.56138 12.707 7.14132 13.3336 5.84732C13.9602 4.55332 14.872 3.4193 16 2.5311C14.6031 1.42954 12.9255 0.744487 11.159 0.554257C9.39243 0.364027 7.60817 0.676284 6.01014 1.45535C4.41211 2.23442 3.06479 3.44886 2.12218 4.95986C1.17956 6.47085 0.679688 8.21744 0.679688 9.99999C0.679688 11.7825 1.17956 13.5291 2.12218 15.0401C3.06479 16.5511 4.41211 17.7656 6.01014 18.5446C7.60817 19.3237 9.39243 19.636 11.159 19.4457C12.9255 19.2555 14.6031 18.5705 16 17.4689C14.872 16.5807 13.9602 15.4467 13.3336 14.1527C12.7071 12.8587 12.3821 11.4386 12.3834 9.99999Z" fill="#EB001B"/>
<path d="M31.3198 10C31.3199 11.7825 30.82 13.5291 29.8775 15.0401C28.9349 16.5511 27.5876 17.7656 25.9896 18.5446C24.3916 19.3237 22.6074 19.636 20.8409 19.4457C19.0743 19.2555 17.3968 18.5705 16 17.4689C17.127 16.5798 18.0381 15.4456 18.6645 14.1518C19.291 12.858 19.6165 11.4384 19.6165 10C19.6165 8.56161 19.291 7.142 18.6645 5.8482C18.0381 4.5544 17.127 3.4202 16 2.53111C17.3968 1.42954 19.0743 0.744483 20.8409 0.554255C22.6074 0.364027 24.3916 0.676297 25.9896 1.45537C27.5876 2.23445 28.9349 3.4489 29.8775 4.95989C30.82 6.47089 31.3199 8.21747 31.3198 10Z" fill="#F79E1B"/>
</svg>
