<svg width="32" height="20" viewBox="0 0 32 20" fill="none" xmlns="http://www.w3.org/2000/svg">
<rect width="32" height="20" rx="2" fill="white"/>
<rect x="0.25" y="0.25" width="31.5" height="19.5" rx="1.75" stroke="#161823" stroke-opacity="0.12" stroke-width="0.5"/>
<path d="M11.6918 7.73227C11.6918 6.84263 11.6918 5.95298 11.6918 5.06334C11.6918 4.71305 11.5002 4.46202 11.1928 4.39375C10.73 4.28871 10.3659 4.59646 10.3648 5.09905C10.3617 6.20192 10.3648 7.30951 10.3648 8.41499C10.3648 9.06201 10.3648 9.70902 10.3648 10.3581C10.3648 10.6491 10.4661 10.8859 10.7452 11.0167C11.2017 11.2299 11.6897 10.9185 11.6897 10.4033C11.6954 9.50998 11.6918 8.62034 11.6918 7.73069V7.73227Z" fill="#008FE5"/>
<path d="M23.1587 16.3261V16.1322H22.3569C22.4086 16.0694 22.8359 15.5965 23.0202 15.3872C23.1755 15.2106 23.1546 14.9217 23.0313 14.7557C22.8958 14.5749 22.6317 14.519 22.3978 14.5935C22.1985 14.657 22.0592 14.8236 22.0439 15.0879H22.2585C22.2585 15.042 22.2578 15.0117 22.2693 14.9828C22.3003 14.8924 22.3495 14.8196 22.4375 14.7824C22.5255 14.7453 22.6652 14.7415 22.7515 14.7824C22.948 14.8693 22.995 15.1305 22.8592 15.2833C22.7181 15.442 22.2448 15.9651 22.0552 16.1712C22.0552 16.2061 22.0552 16.2595 22.0552 16.3313L23.1587 16.3261Z" fill="#008FE5"/>
<path d="M5.12879 14.6969H4.94611V16.3316H5.12879C5.11969 16.0023 5.11969 15.7706 5.12879 15.6364C5.12987 15.5503 5.16731 15.4511 5.23184 15.3942C5.29638 15.3373 5.37448 15.306 5.4681 15.3123C5.62406 15.3229 5.72988 15.4199 5.72988 15.6364C5.73198 15.7713 5.73198 16.003 5.72988 16.3316H5.91659C5.91659 15.984 5.91659 15.7206 5.91659 15.5413C5.91659 15.3063 5.77361 15.1292 5.48975 15.1449C5.33744 15.1533 5.23184 15.2091 5.12879 15.3609V14.6969Z" fill="#008FE5"/>
<path d="M8.9745 14.6968H8.79181V16.3315H8.9745C8.9654 16.0022 8.9654 15.7705 8.9745 15.6363C8.97557 15.5503 9.01301 15.451 9.07755 15.3941C9.14208 15.3372 9.22018 15.3059 9.3138 15.3123C9.46976 15.3228 9.57558 15.4198 9.57558 15.6363C9.57768 15.7712 9.57768 16.0029 9.57558 16.3315H9.76229C9.76229 15.9839 9.76229 15.7205 9.76229 15.5413C9.76229 15.3062 9.61931 15.1291 9.33546 15.1448C9.18314 15.1532 9.07755 15.209 8.9745 15.3609V14.6968Z" fill="#008FE5"/>
<path d="M17.2274 15.1442C17.2516 15.1428 17.2748 15.1429 17.297 15.1443L17.297 15.3301C17.2525 15.3301 17.2193 15.3301 17.1974 15.3301C17.0952 15.3301 17.0187 15.3562 16.9606 15.4067C16.9025 15.4571 16.8675 15.5496 16.8665 15.6357V16.3309H16.6838V15.1443H16.8665V15.3301C16.9695 15.1812 17.0751 15.1526 17.2274 15.1442Z" fill="#008FE5"/>
<path d="M7.6656 15.1442H7.48291V16.3309H7.6656C7.6565 16.0016 7.6565 15.7699 7.6656 15.6357C7.66667 15.5496 7.70411 15.4504 7.76865 15.3935C7.83318 15.3366 7.91128 15.3053 8.0049 15.3116C8.16086 15.3222 8.26668 15.4192 8.26668 15.6357C8.26878 15.7706 8.26878 16.0023 8.26668 16.3309H8.45339C8.45339 15.9833 8.45339 15.7199 8.45339 15.5407C8.45339 15.3056 8.31041 15.1285 8.02656 15.1442C7.87424 15.1526 7.76865 15.2084 7.6656 15.3603V15.1442Z" fill="#008FE5"/>
<path d="M14.1553 15.1442H13.9727V16.3309H14.1553C14.1462 16.0016 14.1462 15.7699 14.1553 15.6357C14.1564 15.5496 14.1939 15.4504 14.2584 15.3935C14.3229 15.3366 14.401 15.3053 14.4947 15.3116C14.6506 15.3222 14.7564 15.4192 14.7564 15.6357C14.7585 15.7706 14.7585 16.0023 14.7564 16.3309H14.9431C14.9431 15.9833 14.9431 15.7199 14.9431 15.5407C14.9431 15.3056 14.8002 15.1285 14.5163 15.1442C14.364 15.1526 14.2584 15.2084 14.1553 15.3603V15.1442Z" fill="#008FE5"/>
<path d="M18.9826 15.1442H18.7999V16.3309H18.9826C18.9735 16.0016 18.9735 15.7699 18.9826 15.6357C18.9836 15.5496 19.0211 15.4504 19.0856 15.3935C19.1501 15.3366 19.2282 15.3053 19.3219 15.3116C19.4778 15.3222 19.5836 15.4192 19.5836 15.6357C19.5857 15.7706 19.5857 16.0023 19.5836 16.3309H19.7703C19.7703 15.9833 19.7703 15.7199 19.7703 15.5407C19.7703 15.3056 19.6274 15.1285 19.3435 15.1442C19.1912 15.1526 19.0856 15.2084 18.9826 15.3603V15.1442Z" fill="#008FE5"/>
<path d="M27.2059 16.7419C27.4563 16.7681 27.5801 16.6489 27.6678 16.4271C27.7766 16.1518 27.9345 15.7272 28.1412 15.1533H27.9407L27.6061 16.1256L27.2699 15.1533H27.071C27.2349 15.5899 27.3598 15.914 27.4455 16.1256C27.4715 16.1896 27.5076 16.2885 27.5078 16.3528C27.5081 16.4383 27.4431 16.5215 27.3884 16.5549C27.352 16.5771 27.2911 16.5849 27.2059 16.5783V16.7419Z" fill="#008FE5"/>
<path d="M4.16969 14.9522H4.67952V14.7839H3.48346V14.9522H3.98333V16.3315L4.16707 16.321L4.16969 14.9522Z" fill="#008FE5"/>
<path d="M10.587 15.1638V15.3199L10.7764 15.3199C10.7764 15.7172 10.7764 15.9787 10.7764 16.1045C10.7764 16.2336 10.8658 16.3257 11.017 16.3257C11.0702 16.3257 11.1504 16.3257 11.2144 16.3257V16.1656C11.1331 16.1656 11.0781 16.1656 11.0493 16.1656C10.991 16.1656 10.954 16.1254 10.954 16.0647C10.954 15.9859 10.954 15.7376 10.954 15.3199H11.2144V15.1638H10.954V14.8637L10.7764 14.8636V15.1637L10.587 15.1638Z" fill="#008FE5"/>
<path d="M15.812 15.1694V15.3255L16.0014 15.3255C16.0014 15.7228 16.0014 15.9843 16.0014 16.1101C16.0014 16.2392 16.0908 16.3313 16.242 16.3313C16.2952 16.3313 16.3753 16.3313 16.4394 16.3313V16.1712C16.3581 16.1712 16.303 16.1712 16.2742 16.1712C16.2159 16.1712 16.179 16.131 16.179 16.0703C16.179 15.9915 16.179 15.7432 16.179 15.3255H16.4394V15.1694H16.179V14.8693L16.0014 14.8692V15.1693L15.812 15.1694Z" fill="#008FE5"/>
<path d="M25.4853 15.1533V16.3305H25.6768V15.1533H25.4853Z" fill="#008FE5"/>
<path d="M26.558 14.6453L26.8571 15.003H26.6244L26.4425 14.7718L26.2607 15.003H26.0281L26.3271 14.6453H26.558Z" fill="#008FE5"/>
<path d="M13.3184 14.9833L13.6148 14.6079H13.3821L13.088 14.9833H13.3184Z" fill="#008FE5"/>
<path d="M20.0744 16.445C20.1387 16.445 20.2688 16.445 20.2688 16.445C20.374 16.6513 20.6702 16.6279 20.7635 16.5662C20.8568 16.5044 20.8977 16.4319 20.8977 16.3522C20.8977 16.24 20.8977 16.1854 20.8977 16.1188C20.8287 16.2511 20.6584 16.3336 20.4932 16.3171C20.3281 16.3005 20.2386 16.225 20.1704 16.1498C19.9908 15.9523 19.9929 15.5155 20.1704 15.3095C20.3478 15.1036 20.7131 15.077 20.8977 15.3369V15.1548H21.0843C21.0913 15.6934 21.0913 16.0863 21.0843 16.3336C21.0786 16.5874 20.9253 16.7327 20.6815 16.7697C20.3879 16.8143 20.1454 16.7055 20.0744 16.445ZM20.5556 15.3162C20.3546 15.3162 20.2301 15.4895 20.2364 15.737C20.2427 15.9756 20.3624 16.1393 20.5556 16.1393C20.7566 16.1393 20.8954 15.9807 20.8948 15.7269C20.8948 15.4747 20.7609 15.3162 20.5556 15.3162Z" fill="#008FE5"/>
<path d="M24.1294 16.445C24.1938 16.445 24.3239 16.445 24.3239 16.445C24.429 16.6513 24.7252 16.6279 24.8186 16.5662C24.9119 16.5044 24.9527 16.4319 24.9527 16.3522C24.9527 16.24 24.9527 16.1854 24.9527 16.1188C24.8838 16.2511 24.7134 16.3336 24.5483 16.3171C24.3831 16.3005 24.2937 16.225 24.2254 16.1498C24.0459 15.9523 24.048 15.5155 24.2254 15.3095C24.4029 15.1036 24.7682 15.077 24.9527 15.3369V15.1533H25.1394C25.1464 15.6929 25.1464 16.0863 25.1394 16.3336C25.1336 16.5874 24.9803 16.7327 24.7366 16.7697C24.4429 16.8143 24.2005 16.7055 24.1294 16.445ZM24.6107 15.3162C24.4096 15.3162 24.2852 15.4895 24.2915 15.737C24.2978 15.9756 24.4175 16.1393 24.6107 16.1393C24.8116 16.1393 24.9504 15.9807 24.9499 15.7269C24.9499 15.4747 24.816 15.3162 24.6107 15.3162Z" fill="#008FE5"/>
<path d="M7.14881 16.3309H6.95582V16.1611C6.82165 16.3419 6.68423 16.351 6.54074 16.351C6.32422 16.351 6.19403 16.1744 6.1994 16.003C6.1994 15.8412 6.3018 15.7198 6.48473 15.674C6.61777 15.6408 6.77871 15.6408 6.95582 15.6368C6.95582 15.4814 6.92478 15.3766 6.80716 15.3342C6.68955 15.2919 6.49641 15.2958 6.43513 15.4678C6.34396 15.4678 6.31118 15.4678 6.23671 15.4678C6.28064 15.2168 6.54307 15.1222 6.72675 15.1355C6.98925 15.1545 7.14881 15.2903 7.14881 15.5589C7.14881 15.8275 7.14881 15.9909 7.14881 16.3309ZM6.63644 15.8058C6.43663 15.818 6.39209 15.9357 6.39209 16.003C6.39209 16.0703 6.44438 16.144 6.5255 16.1611C6.76172 16.2109 6.95582 16.0958 6.95582 15.796C6.84895 15.796 6.7425 15.7993 6.63644 15.8058Z" fill="#008FE5"/>
<path d="M13.6742 16.3253H13.4812V16.1555C13.347 16.3363 13.2096 16.3454 13.0661 16.3454C12.8633 16.3454 12.7194 16.1688 12.7248 15.9974C12.7248 15.8356 12.8272 15.7142 13.0101 15.6684C13.1432 15.6352 13.3041 15.6352 13.4812 15.6312C13.4812 15.4758 13.4502 15.371 13.3326 15.3286C13.2149 15.2863 13.0218 15.2902 12.9605 15.4622C12.8694 15.4622 12.8366 15.4622 12.7621 15.4622C12.806 15.2112 13.0685 15.1166 13.2521 15.1299C13.5146 15.1489 13.6742 15.2847 13.6742 15.5533C13.6742 15.8219 13.6742 15.9853 13.6742 16.3253ZM13.1618 15.8002C12.962 15.8124 12.9175 15.9301 12.9175 15.9974C12.9175 16.0647 12.9698 16.1384 13.0509 16.1555C13.2885 16.2056 13.4812 16.0902 13.4812 15.7904C13.3743 15.7904 13.2679 15.7937 13.1618 15.8002Z" fill="#008FE5"/>
<path d="M26.8965 16.3253H26.7036V16.1555C26.5694 16.3363 26.432 16.3454 26.2885 16.3454C26.0781 16.3454 25.9418 16.1688 25.9471 15.9974C25.9471 15.8356 26.0495 15.7142 26.2325 15.6684C26.3655 15.6352 26.5264 15.6352 26.7036 15.6312C26.7036 15.4758 26.6725 15.371 26.5549 15.3286C26.4373 15.2863 26.2441 15.2902 26.1829 15.4622C26.0917 15.4622 26.0589 15.4622 25.9845 15.4622C26.0284 15.2112 26.2908 15.1166 26.4745 15.1299C26.737 15.1489 26.8965 15.2847 26.8965 15.5533C26.8965 15.8219 26.8965 15.9853 26.8965 16.3253ZM26.3842 15.8002C26.1844 15.8124 26.1398 15.9301 26.1398 15.9974C26.1398 16.0647 26.1921 16.1384 26.2732 16.1555C26.5 16.2033 26.7036 16.0902 26.7036 15.7904C26.5967 15.7904 26.4902 15.7937 26.3842 15.8002Z" fill="#008FE5"/>
<path d="M12.5076 15.7461C12.5076 16.1208 12.291 16.3577 11.9738 16.3577C11.6565 16.3577 11.4389 16.1105 11.4399 15.7369C11.4399 15.3781 11.643 15.1402 11.9642 15.1371C12.2934 15.1334 12.5076 15.3746 12.5076 15.7461ZM11.8667 15.3299C11.7149 15.374 11.6241 15.551 11.6315 15.7554C11.6388 15.9782 11.7237 16.1104 11.8801 16.1631C12.0365 16.2159 12.1745 16.1405 12.2282 16.0651C12.2819 15.9897 12.3265 15.8993 12.3133 15.6669C12.3002 15.4346 12.1183 15.2568 11.8667 15.3299Z" fill="#008FE5"/>
<path d="M18.5079 15.7461C18.5079 16.1208 18.2913 16.3577 17.9741 16.3577C17.6568 16.3577 17.4392 16.1105 17.4403 15.7369C17.4403 15.3781 17.6433 15.1402 17.9646 15.1371C18.2937 15.1334 18.5079 15.3746 18.5079 15.7461ZM17.867 15.3299C17.7152 15.374 17.6245 15.551 17.6318 15.7554C17.6392 15.9782 17.7241 16.1104 17.8804 16.1631C18.0368 16.2159 18.1748 16.1405 18.2285 16.0651C18.2823 15.9897 18.3268 15.8993 18.3137 15.6669C18.3005 15.4346 18.1186 15.2568 17.867 15.3299Z" fill="#008FE5"/>
<path d="M25.5811 14.9407C25.6536 14.9407 25.7123 14.882 25.7123 14.8095C25.7123 14.737 25.6536 14.6783 25.5811 14.6783C25.5086 14.6783 25.4498 14.737 25.4498 14.8095C25.4498 14.882 25.5086 14.9407 25.5811 14.9407Z" fill="#008FE5"/>
<path d="M28.8271 12.2583C28.923 12.2032 28.9815 12.0769 28.9988 12.0351C29.6727 10.4044 30.2973 8.86476 30.9695 7.23547C31.1269 6.85682 30.9767 6.54897 30.6694 6.43192C30.3621 6.31486 30.0303 6.44824 29.885 6.80798C29.7949 7.03065 29.4995 7.77325 28.9988 9.03576C28.566 7.87443 28.2893 7.13184 28.1686 6.80798C28.0495 6.4892 27.8253 6.36031 27.4847 6.40613C27.1442 6.45195 26.9121 6.78202 27.0742 7.19953C27.1643 7.4314 27.6049 8.52822 28.3959 10.49L27.9122 11.5719C27.7946 11.8794 27.8101 12.1071 27.9899 12.2583H17.8565C17.4508 12.2583 17.1219 11.9291 17.1219 11.523V3.95524C17.1219 3.54918 17.4508 3.22 17.8565 3.22H30.7415C31.1463 3.22 31.4987 3.54776 31.5 3.95291V11.5207C31.5013 11.9268 31.1735 12.257 30.7678 12.2583H30.7654H28.8271ZM22.9526 6.89903C22.4226 7.40845 22.284 8.02606 22.2526 8.40305C22.2211 8.78004 22.2532 9.5271 22.7104 10.121C23.3321 10.9284 24.6323 11.2736 25.4007 10.446C25.5081 10.645 25.694 10.7554 25.7879 10.7867C26.2454 10.9432 26.6747 10.6299 26.6747 10.121C26.6789 9.13578 26.6747 7.1648 26.6747 7.1648C26.6747 6.7266 26.4048 6.48874 26.0871 6.45257C25.7693 6.4164 25.5595 6.53701 25.4007 6.86268C25.2889 6.71932 25.0345 6.48427 24.6715 6.40762C24.1581 6.29631 23.4484 6.4206 22.9526 6.89903ZM17.8845 5.2347C17.8845 6.92622 17.8845 8.61774 17.8845 10.3093C17.8845 10.6541 18.1626 10.9181 18.5199 10.9181C18.8772 10.9181 19.17 10.6642 19.17 10.3093C19.17 10.2357 19.17 9.73609 19.17 8.81046C19.6831 8.81046 20.0209 8.81046 20.1833 8.81046C21.3179 8.81046 22.2964 8.03317 22.2964 6.75962C22.2964 5.48608 21.2651 4.70952 20.1833 4.70952C19.5919 4.70952 19.0006 4.70952 18.4092 4.70952C18.1194 4.70952 17.8845 4.94465 17.8845 5.2347ZM24.4795 7.56079C25.038 7.56079 25.3661 8.09764 25.3661 8.60906C25.3661 9.12049 25.1388 9.54031 24.7786 9.6603C24.228 9.84369 23.7257 9.57812 23.5948 8.96734C23.5368 8.67383 23.548 8.34773 23.6746 8.06079C23.8011 7.77385 24.0821 7.56079 24.4795 7.56079ZM20.1282 5.83998C20.5717 5.83998 20.9552 6.23951 20.9552 6.7632C20.9552 7.28689 20.5845 7.68471 20.1282 7.68471C19.9343 7.68471 19.2109 7.68471 19.1558 7.68471V5.83998C19.2403 5.83998 19.8552 5.83998 20.1282 5.83998Z" fill="#04BE04"/>
<path d="M0.631143 9.91207C0.794574 9.69052 3.52143 6.16804 3.5841 6.08668C3.49175 6.08668 3.39878 6.08668 3.3311 6.08668C2.73032 6.08668 2.12902 6.08668 1.52824 6.08668C1.42045 6.08636 1.31281 6.07864 1.20607 6.06357C0.808354 6.00633 0.576438 5.75845 0.595852 5.41446C0.615266 5.07047 0.864497 4.83204 1.25382 4.80316C1.31416 4.79843 1.37503 4.79948 1.43589 4.79948C2.48529 4.79948 3.52943 4.79948 4.57568 4.79948C4.72389 4.79763 4.89039 4.8113 5.03452 4.84594C5.44273 4.95097 5.63016 5.26439 5.45123 5.77802C5.2723 6.29166 2.62075 9.59209 2.4383 9.82538C2.51648 9.83116 4.9537 9.81689 5.05473 9.82538C5.43041 9.8674 5.65119 10.088 5.65749 10.4477C5.66431 10.8489 5.45123 11.0649 5.1233 11.1248C5.01702 11.1442 4.87385 11.1448 4.76603 11.1457C3.72608 11.1478 2.61077 11.1478 1.57082 11.1457C1.42249 11.1443 1.2744 11.1334 1.12745 11.1131C0.783775 11.0664 0.564308 10.8034 0.52661 10.5922C0.488912 10.381 0.467713 10.1336 0.631143 9.91207Z" fill="#008FE5"/>
<path d="M8.71509 10.689C8.09656 11.4581 6.65374 11.3418 5.93997 10.2489C5.38413 9.39782 5.40895 8.1712 6.04491 7.34418C6.68087 6.51716 7.98731 6.24417 8.73275 7.06448C8.86767 6.79902 9.06657 6.66198 9.34676 6.66251C9.73556 6.66251 10.0068 6.91879 10.0089 7.32055C10.0142 8.35234 10.0142 9.38413 10.0089 10.4159C10.0089 10.7368 9.83926 10.9764 9.59099 11.0553C9.34272 11.1343 9.03571 11.1099 8.79484 10.7977C8.77071 10.7646 8.74815 10.7326 8.71509 10.689ZM6.99616 9.44825C7.1015 9.67881 7.3515 9.9517 7.74344 9.96115C8.18471 9.97165 8.47262 9.75869 8.61481 9.31597C8.71942 9.00703 8.71486 8.64337 8.58593 8.34378C8.42223 7.96093 8.16146 7.79376 7.74344 7.79376C7.32543 7.79376 7.06865 8.09661 6.97799 8.31651C6.91395 8.47186 6.88484 8.66705 6.88484 8.87764C6.88484 9.08823 6.94452 9.33522 6.99616 9.44825Z" fill="#008FE5"/>
<path d="M16.4874 8.9449C16.4874 9.93168 15.876 10.8652 14.8587 11.1083C13.4042 11.4544 12.0847 10.4868 12.0278 8.99515C11.9977 8.208 12.2748 7.51219 12.9221 6.99534C13.5184 6.51927 14.5409 6.42476 15.3129 6.82742C16.0849 7.23007 16.4874 7.95812 16.4874 8.9449ZM15.1718 8.9449C15.1718 8.64039 15.1338 8.38064 14.9757 8.16676C14.8176 7.95288 14.5966 7.79883 14.2676 7.79883C13.9387 7.79883 13.7217 7.90803 13.5184 8.24336C13.3151 8.5787 13.299 9.13571 13.5184 9.5215C13.7378 9.90729 14.1618 10.0388 14.5739 9.90729C14.9859 9.77578 15.1718 9.24941 15.1718 8.9449Z" fill="#008FE5"/>
</svg>
